<svg width="32" height="32" viewBox="0 0 32 32" fill="none" xmlns="http://www.w3.org/2000/svg">
<path d="M15.999 5.90137C19.8099 5.90171 22.8971 8.9922 22.8975 12.7998V17.3926L24.3496 18.8457L24.4961 19.1992V22.3994L23.9961 22.8994H19.6641C19.4202 24.7068 17.8731 26.1013 15.999 26.1016C14.1247 26.1016 12.576 24.707 12.332 22.8994H8.00098L7.50098 22.3994V19.1992L7.64746 18.8457L9.09961 17.3926V12.7998C9.09998 8.98868 12.1911 5.90137 15.999 5.90137ZM13.3457 22.8994C13.5802 24.1523 14.6783 25.1016 15.999 25.1016C17.3196 25.1013 18.4171 24.1522 18.6514 22.8994H13.3457ZM15.999 6.90137C12.7431 6.90137 10.1 9.54127 10.0996 12.7998V17.5996L9.95312 17.9531L8.50098 19.4053V21.8994H23.4961V19.4053L22.0439 17.9531L21.8975 17.5996V12.7998C21.8971 9.54418 19.2574 6.90171 15.999 6.90137Z" fill="#B3B3B3"/>
</svg>
