<svg width="32" height="32" viewBox="0 0 32 32" fill="none" xmlns="http://www.w3.org/2000/svg">
<path d="M24.499 8.00098V19.2021L24.3525 19.5566L19.5527 24.3564L19.1992 24.5029H8.00098L7.50098 24.0029V8.00098L8.00098 7.50098H23.999L24.499 8.00098ZM8.50098 23.5029H17.1006V17.6006L17.6006 17.1006H22.4004V18.1006H18.1006V23.5029H18.9922L23.499 18.9951V8.50098H8.50098V23.5029ZM15.002 21.3008H11.2021V20.3008H15.002V21.3008ZM15.002 18.1006H11.2021V17.1006H15.002V18.1006ZM20.8018 14.9023H11.2021V13.9023H20.8018V14.9023ZM20.8018 11.7012H11.2021V10.7012H20.8018V11.7012Z" fill="#B3B3B3"/>
</svg>
