<svg width="32" height="32" viewBox="0 0 32 32" fill="none" xmlns="http://www.w3.org/2000/svg">
<path d="M8.50098 23.499H23.499V12.8008H24.499V23.999L23.999 24.499H8.00098L7.50098 23.999V12.8008H8.50098V23.499ZM16.498 15.498H19.1992V16.498H16.498V19.1992H15.498V16.498H12.8008V15.498H15.498V12.8008H16.498V15.498ZM11.6982 7.50098H20.2988V4.7998H21.2988V7.50098H23.999L24.499 8.00098V11.1992H23.499V8.50098H21.2988V11.1982H20.2988V8.50098H11.6982V11.1982H10.6982V8.50098H8.50098V11.1992H7.50098V8.00098L8.00098 7.50098H10.6982V4.7998H11.6982V7.50098Z" fill="#B3B3B3"/>
</svg>
