<svg width="32" height="32" viewBox="0 0 32 32" fill="none" xmlns="http://www.w3.org/2000/svg">
<path d="M19.6992 16.002V19.2031L19.1992 19.7031H15.998V18.7031H18.6992V16.502H13.0049L10.0996 19.4092V25.1016H19.1172L28.2988 22.04V19.7031H22.3975V18.7031H28.7988L29.2988 19.2031V22.4004L28.957 22.875L19.3574 26.0762L19.1992 26.1016H9.59961L9.59863 26.1006H4.7998L4.2998 25.6006V19.2021L4.7998 18.7021H9.39355L12.4434 15.6484L12.7979 15.502H19.1992L19.6992 16.002ZM5.2998 25.1006H9.09961V19.7021H5.2998V25.1006ZM25.5986 11.5029C27.2 11.5032 28.498 12.8019 28.498 14.4033C28.4977 16.0045 27.1998 17.3025 25.5986 17.3027C23.9973 17.3027 22.6986 16.0046 22.6982 14.4033C22.6982 12.8017 23.9971 11.5029 25.5986 11.5029ZM25.5986 12.5029C24.5494 12.5029 23.6982 13.354 23.6982 14.4033C23.6986 15.4523 24.5496 16.3027 25.5986 16.3027C26.6475 16.3025 27.4977 15.4522 27.498 14.4033C27.498 13.3542 26.6477 12.5032 25.5986 12.5029ZM15.999 8.30176C17.6003 8.30206 18.8984 9.60081 18.8984 11.2021C18.8982 12.8033 17.6002 14.1013 15.999 14.1016C14.3976 14.1016 13.0989 12.8035 13.0986 11.2021C13.0987 9.60062 14.3975 8.30176 15.999 8.30176ZM15.999 9.30176C14.9498 9.30176 14.0987 10.1529 14.0986 11.2021C14.0989 12.2512 14.9499 13.1016 15.999 13.1016C17.0479 13.1013 17.8982 12.251 17.8984 11.2021C17.8984 10.1531 17.048 9.30206 15.999 9.30176ZM22.3975 5.10059C23.9987 5.10084 25.2967 6.39973 25.2969 8.00098C25.2966 9.60219 23.9987 10.9001 22.3975 10.9004C20.7962 10.9002 19.4973 9.60226 19.4971 8.00098C19.4973 6.39966 20.7961 5.10073 22.3975 5.10059ZM22.3975 6.10059C21.3484 6.10073 20.4973 6.95195 20.4971 8.00098C20.4973 9.04997 21.3484 9.90025 22.3975 9.90039C23.4464 9.90014 24.2966 9.04991 24.2969 8.00098C24.2967 6.95201 23.4464 6.10084 22.3975 6.10059Z" fill="#B3B3B3"/>
</svg>
