<svg width="32" height="32" viewBox="0 0 32 32" fill="none" xmlns="http://www.w3.org/2000/svg">
<path d="M16.7998 5.89844C21.9357 5.89867 26.0985 10.0613 26.0986 15.1973V16.7959C26.0986 21.7715 22.1919 25.8338 17.2783 26.083L16.7998 26.0947L8.00098 26.0977L7.50098 25.5977V15.1973C7.50115 10.0612 11.6637 5.89844 16.7998 5.89844ZM16.7998 6.89844C12.216 6.89844 8.50115 10.6135 8.50098 15.1973V25.0967L16.7998 25.0947C21.3835 25.0945 25.0986 21.3797 25.0986 16.7959V15.1973C25.0985 10.6136 21.3834 6.89867 16.7998 6.89844ZM17.6006 21.2354H12.8008V20.2354H17.6006V21.2354ZM20.8018 18.0371H12.8008V17.0371H20.8018V18.0371ZM20.8018 14.8359H12.8008V13.8359H20.8018V14.8359ZM20.8018 11.6357H12.8008V10.6357H20.8018V11.6357Z" fill="#B3B3B3"/>
</svg>
