<svg width="32" height="32" viewBox="0 0 32 32" fill="none" xmlns="http://www.w3.org/2000/svg">
<path d="M26.1016 25.6016L25.6016 26.1016H8.00098V25.1016H25.1016V8.00098H26.1016V25.6016ZM22.9004 6.40137V22.3994L22.4004 22.8994H6.39844L5.89844 22.3994V6.40137L6.39844 5.90137H22.4004L22.9004 6.40137ZM6.89844 21.8994H21.9004V6.90137H6.89844V21.8994ZM14.3994 9.09961C17.3264 9.09961 19.6992 11.4724 19.6992 14.3994C19.6992 17.3264 17.3264 19.6992 14.3994 19.6992C11.4725 19.6992 9.09965 17.3264 9.09961 14.3994C9.09963 11.4724 11.4724 9.09966 14.3994 9.09961ZM11.7354 17.7725C12.468 18.3519 13.3928 18.6992 14.3994 18.6992C16.6049 18.6992 18.4211 17.0385 18.6689 14.8994H14.6064L11.7354 17.7725ZM13.8994 10.1289C11.7603 10.3767 10.0996 12.1939 10.0996 14.3994C10.0996 15.4071 10.4468 16.3334 11.0273 17.0664L13.8994 14.1924V10.1289ZM14.8994 13.8994H18.6689C18.4402 11.9243 16.8745 10.3576 14.8994 10.1289V13.8994Z" fill="#B3B3B3"/>
</svg>
