<svg width="32" height="32" viewBox="0 0 32 32" fill="none" xmlns="http://www.w3.org/2000/svg">
<path d="M16 5.94434C21.5523 5.94442 26.0556 10.4476 26.0557 16C26.0557 21.5524 21.5524 26.0556 16 26.0557C10.4445 26.0556 5.94434 21.5523 5.94434 16C5.94439 10.4476 10.4476 5.94439 16 5.94434ZM16 6.94434C10.9999 6.94439 6.94439 10.9999 6.94434 16C6.94434 21.0002 10.997 25.0556 16 25.0557C21.0001 25.0556 25.0557 21.0001 25.0557 16C25.0556 10.9999 21.0001 6.94442 16 6.94434ZM16.5 22.3672H15.5V14.4072H16.5V22.3672ZM16.0908 10.3291C16.5408 10.3747 16.8975 10.7541 16.8975 11.2227C16.8972 11.7197 16.4971 12.12 16 12.1201C15.5339 12.12 15.1524 11.7681 15.1064 11.3145L15.1016 11.2227L15.1064 11.1309C15.1522 10.6811 15.5317 10.3243 16 10.3242L16.0908 10.3291Z" fill="#B3B3B3"/>
</svg>
