<svg width="32" height="32" viewBox="0 0 32 32" fill="none" xmlns="http://www.w3.org/2000/svg">
<path d="M15.998 4.19434C22.459 4.19434 27.696 9.43169 27.6963 15.8926C27.6963 20.6648 24.8399 24.7673 20.7441 26.5879L22.2656 27.1572L22.0908 27.625L21.915 28.0938L19.1543 27.0605L18.8613 26.417L19.8965 23.6553L20.3652 23.8311L20.833 24.0068L20.1807 25.7412C24.0111 24.1122 26.6963 20.3168 26.6963 15.8926C26.696 9.98397 21.9067 5.19434 15.998 5.19434V4.19434ZM12.8438 4.83398L13.1367 5.47852L12.1006 8.23926L11.6328 8.06348L11.1641 7.8877L11.8145 6.15332C7.98482 7.78254 5.30002 11.5775 5.2998 16.001C5.2998 21.9097 10.0894 26.7 15.998 26.7002V27.7002C9.5371 27.7 4.2998 22.462 4.2998 16.001C4.30002 11.2285 7.15668 7.12484 11.2529 5.30469L9.73145 4.73438L10.083 3.79883L12.8438 4.83398ZM10.0996 20.2988H21.9004V15.1045H22.9004V20.7988L22.4004 21.2988H9.59961L9.09961 20.7988V15.1045H10.0996V20.2988ZM19.1992 14.8994H12.8008V13.8994H19.1992V14.8994ZM22.9004 11.1982V13.5049H21.9004V11.6982H10.0996V13.5049H9.09961V11.1982L9.59961 10.6982H22.4004L22.9004 11.1982Z" fill="#B3B3B3"/>
</svg>
