<svg width="32" height="32" viewBox="0 0 32 32" fill="none" xmlns="http://www.w3.org/2000/svg">
<path d="M16 4.31348C20.6801 4.31365 24.4714 8.09584 24.4863 12.7725L24.5137 12.7998C24.5137 14.703 23.8807 16.4515 22.8291 17.8633L16.4297 27.4775H15.5977L9.19727 17.8643V17.8633C8.14581 16.4516 7.51367 14.7028 7.51367 12.7998C7.51386 8.1106 11.3108 4.31366 16 4.31348ZM16 5.31348C11.8631 5.31366 8.51386 8.66288 8.51367 12.7998C8.51367 14.381 9.00705 15.8417 9.8418 17.0488L10.0137 17.2871L10.0303 17.3096L16.0137 26.2979L21.9971 17.3096L22.0137 17.2871C22.9472 16.0423 23.5072 14.5021 23.5127 12.8252L23.4873 12.7998C23.4871 8.66288 20.1369 5.31365 16 5.31348ZM16 9.09961C18.0493 9.09971 19.7 10.7505 19.7002 12.7998C19.7001 14.8491 18.0493 16.4999 16 16.5C13.9654 16.4999 12.2999 14.8505 12.2998 12.7998C12.3 10.7505 13.9507 9.0997 16 9.09961ZM16 10.0996C14.503 10.0997 13.3 11.3028 13.2998 12.7998C13.2999 14.2955 14.5149 15.4999 16 15.5C17.497 15.4999 18.7001 14.2968 18.7002 12.7998C18.7 11.3028 17.497 10.0997 16 10.0996Z" fill="#B3B3B3"/>
</svg>
