<svg width="32" height="32" viewBox="0 0 32 32" fill="none" xmlns="http://www.w3.org/2000/svg">
<path d="M24.4971 14.4033V25.6035L23.9971 26.1035H7.99707L7.49707 25.6035V14.4033L7.99707 13.9033H23.9971L24.4971 14.4033ZM8.49707 25.1035H23.4971V14.9033H8.49707V25.1035ZM12.8926 19.1074C13.3461 19.1537 13.7 19.5373 13.7002 20.0029C13.7 20.4996 13.2974 20.902 12.8008 20.9023C12.3349 20.9023 11.9515 20.5485 11.9053 20.0947L11.9004 20.0029L11.9053 19.9102C11.9517 19.4567 12.335 19.1025 12.8008 19.1025L12.8926 19.1074ZM16.0918 19.1074C16.5454 19.1536 16.8992 19.5372 16.8994 20.0029C16.8992 20.4997 16.4967 20.9021 16 20.9023C15.5343 20.9021 15.1507 20.5483 15.1045 20.0947L15.0996 20.0029L15.1045 19.9102C15.1509 19.4568 15.5344 19.1027 16 19.1025L16.0918 19.1074ZM19.292 19.1074C19.7456 19.1536 20.0994 19.5372 20.0996 20.0029C20.0994 20.4997 19.6969 20.9021 19.2002 20.9023C18.7344 20.9023 18.3509 20.5484 18.3047 20.0947L18.2998 20.0029L18.3047 19.9102C18.3511 19.4567 18.7345 19.1026 19.2002 19.1025L19.292 19.1074ZM15.9971 5.90039C18.0391 5.9005 19.6973 7.55858 19.6973 9.60059H18.6973C18.6973 8.11087 17.4868 6.9005 15.9971 6.90039C14.5071 6.90047 13.2969 8.10819 13.2969 9.60059V12.8008H12.2969V9.60059C12.2969 7.5553 13.9554 5.90047 15.9971 5.90039Z" fill="#B3B3B3"/>
</svg>
