<svg width="32" height="32" viewBox="0 0 32 32" fill="none" xmlns="http://www.w3.org/2000/svg">
<path d="M22.9004 8.00098V20.8018L22.4004 21.3018H19.1992L18.9756 21.249L12.6826 18.1006H10.0996V25.1016H12.3008V20.8018H13.3008V25.6016L12.8008 26.1016H9.59961L9.09961 25.6016V18.1006H4.7998L4.2998 17.6006V11.2021L4.7998 10.7021H12.6826L18.9756 7.55371L19.1992 7.50098H22.4004L22.9004 8.00098ZM13.0244 11.6494L12.8008 11.7021H5.2998V17.1006H12.8008L13.0244 17.1533L19.3174 20.3018H21.9004V8.50098H19.3174L13.0244 11.6494ZM27.165 9.24902C30.0101 12.0941 30.0101 16.7105 27.165 19.5557L26.458 18.8486C28.9126 16.394 28.9126 12.4106 26.458 9.95605L27.165 9.24902ZM24.958 10.8477C26.9207 12.8104 26.9205 15.9903 24.958 17.9531L24.251 17.2461C25.823 15.6738 25.8232 13.1269 24.251 11.5547L24.958 10.8477Z" fill="#B3B3B3"/>
</svg>
