<svg width="32" height="32" viewBox="0 0 32 32" fill="none" xmlns="http://www.w3.org/2000/svg">
<path d="M22.6924 6.42969L25.8887 10.2695L25.9756 10.5098V14.667L25.6006 15.043H21.9492L25.8223 17.8838L25.9756 18.1865V24.2666L25.6006 24.6416H6.40039L6.02441 24.2666V18.1865L6.17871 17.8838L10.0518 15.043H6.40039L6.02441 14.667V10.5098L6.1123 10.2695L9.31543 6.42969L9.60352 6.29395H22.4033L22.6924 6.42969ZM11.5762 14.667L11.4229 14.9688L6.77637 18.376V23.8906H25.2246V18.376L20.5781 14.9688L20.4248 14.666V13.0693H20.4277V11.8428H11.5762V14.667ZM16.0029 14.2939C17.9789 14.294 19.5811 15.8966 19.5811 17.8701C19.5808 19.8434 17.9788 21.4452 16.0029 21.4453C14.0271 21.4452 12.4241 19.8434 12.4238 17.8701C12.4238 15.8966 14.0269 14.294 16.0029 14.2939ZM16.0029 15.0459C14.4413 15.046 13.1758 16.3119 13.1758 17.8701C13.1761 19.4281 14.4415 20.6942 16.0029 20.6943C17.5644 20.6942 18.8298 19.4281 18.8301 17.8701C18.8301 16.3119 17.5646 15.046 16.0029 15.0459ZM6.77637 10.6445V14.291H10.8252V11.4668L11.2002 11.0918H20.8037L21.1787 11.4668V14.291H25.2246V10.6455L22.2275 7.0459H9.77832L6.77637 10.6445Z" fill="#B3B3B3"/>
</svg>
