<svg width="32" height="32" viewBox="0 0 32 32" fill="none" xmlns="http://www.w3.org/2000/svg">
<path d="M24.499 7.99805V23.998L23.999 24.498H8.00098L7.50098 23.998V7.99805L8.00098 7.49805H23.999L24.499 7.99805ZM8.50098 23.498H23.499V8.49805H8.50098V23.498ZM16.2061 18.7012H22.4004V19.7012H15.998L15.6445 19.5547L12.7998 16.707L9.95312 19.5547L9.24609 18.8477L12.4473 15.6465H13.1543L16.2061 18.7012ZM19.1992 11.7412C20.513 11.7412 21.5779 12.8064 21.5781 14.1201C21.5781 15.434 20.5131 16.499 19.1992 16.499C17.8854 16.4989 16.8203 15.4339 16.8203 14.1201C16.8205 12.8065 17.8856 11.7413 19.1992 11.7412ZM19.1992 12.7412C18.4378 12.7413 17.8205 13.3588 17.8203 14.1201C17.8203 14.8816 18.4377 15.4989 19.1992 15.499C19.9608 15.499 20.5781 14.8817 20.5781 14.1201C20.5779 13.3587 19.9607 12.7412 19.1992 12.7412Z" fill="#B3B3B3"/>
</svg>
