<svg width="32" height="32" viewBox="0 0 32 32" fill="none" xmlns="http://www.w3.org/2000/svg">
<path d="M20.8018 8.50098H8.50098V23.499H23.499V17.6006H24.499V23.999L23.999 24.499H8.00098L7.50098 23.999V8.00098L8.00098 7.50098H20.8018V8.50098ZM27.6982 10.7637V11.4707L18.6465 20.5195L18.5381 20.6016L15.6416 22.2305L15.043 22.1484L14.1924 21.3008H11.2021V20.3008H14.1074L15.3467 18.1006H11.2021V17.1006H16.002V17.2256L24.7266 8.49902H25.4336L27.6982 10.7637ZM16.4326 18.209L15.0205 20.7148L15.4805 21.1729L17.9873 19.7627L26.6367 11.1162L25.0801 9.55957L16.4326 18.209ZM16.002 14.8994H11.2021V13.8994H16.002V14.8994ZM17.6006 11.6982H11.2021V10.6982H17.6006V11.6982Z" fill="#B3B3B3"/>
</svg>
