<svg width="32" height="32" viewBox="0 0 32 32" fill="none" xmlns="http://www.w3.org/2000/svg">
<path d="M15.999 17.0977C20.6922 17.0979 24.5 20.9021 24.5 25.5986H23.5C23.5 21.4546 20.1402 18.0979 15.999 18.0977C11.8548 18.0977 8.49805 21.4572 8.49805 25.5986H7.49805C7.49805 20.9052 11.3023 17.0977 15.999 17.0977ZM15.999 5.90137C18.4834 5.90164 20.4979 7.91603 20.498 10.4004C20.498 12.8848 18.4834 14.8991 15.999 14.8994C13.5144 14.8994 11.5001 12.885 11.5 10.4004C11.5002 7.91586 13.5145 5.90137 15.999 5.90137ZM15.999 6.90137C14.0667 6.90137 12.5002 8.46815 12.5 10.4004C12.5001 12.3327 14.0667 13.8994 15.999 13.8994C17.9311 13.8991 19.498 12.3325 19.498 10.4004C19.4979 8.46831 17.9311 6.90164 15.999 6.90137Z" fill="#B3B3B3"/>
</svg>
