<svg width="32" height="32" viewBox="0 0 32 32" fill="none" xmlns="http://www.w3.org/2000/svg">
<path d="M14.3994 5.89844C19.094 5.89856 22.9002 9.7048 22.9004 14.3994C22.9003 16.5661 22.0885 18.5426 20.7539 20.0439L25.9551 25.2451L25.248 25.9521L20.0469 20.751C18.5451 22.0872 16.5676 22.9003 14.3994 22.9004C9.7048 22.9002 5.89856 19.094 5.89844 14.3994C5.89861 9.70484 9.70484 5.89861 14.3994 5.89844ZM14.3994 6.89844C10.2571 6.89861 6.89861 10.2571 6.89844 14.3994C6.89856 18.5418 10.2571 21.9002 14.3994 21.9004C18.5418 21.9003 21.9003 18.5418 21.9004 14.3994C21.9002 10.2571 18.5418 6.89856 14.3994 6.89844Z" fill="#B3B3B3"/>
</svg>
