<svg width="32" height="32" viewBox="0 0 32 32" fill="none" xmlns="http://www.w3.org/2000/svg">
<path d="M19.0186 6.39844V8.05566C19.1741 8.11493 19.3281 8.17909 19.4795 8.24707L20.6523 7.0752H21.3594L24.9248 10.6396V11.3467L23.751 12.5195C23.819 12.6711 23.8838 12.8247 23.9434 12.9805H25.6006L26.1006 13.4805V18.5215L25.6006 19.0215H23.9443C23.885 19.1772 23.82 19.3308 23.752 19.4824L24.9248 20.6553V21.3623L21.3594 24.9277H20.6523L19.4795 23.7539C19.3278 23.822 19.1744 23.8868 19.0186 23.9463V25.6035L18.5186 26.1035H13.4775L12.9775 25.6035V23.9463C12.8217 23.8869 12.6673 23.823 12.5156 23.7549L11.3438 24.9277H10.6367L7.07227 21.3623V20.6553L8.24414 19.4824C8.17621 19.3311 8.11313 19.177 8.05371 19.0215H6.39551L5.89551 18.5215V13.4805L6.39551 12.9805H8.05371C8.11303 12.8248 8.17511 12.6701 8.24316 12.5186L7.07227 11.3467V10.6396L10.6367 7.0752H11.3438L12.5166 8.24707C12.6681 8.17905 12.8219 8.11516 12.9775 8.05566V6.39844L13.4775 5.89844H18.5186L19.0186 6.39844ZM13.9775 8.40723L13.6367 8.88086C13.2914 8.99693 12.9578 9.13586 12.6357 9.29688L12.0586 9.20312L10.9902 8.13477L8.13184 10.9932L9.2002 12.0615L9.29297 12.6396C9.13299 12.9568 8.99438 13.2932 8.87793 13.6396L8.4043 13.9805H6.89551V18.0215H8.4043L8.87793 18.3623C8.994 18.7077 9.1329 19.0421 9.29395 19.3643L9.2002 19.9414L8.13184 21.0088L10.9902 23.8662L12.0586 22.7988L12.6367 22.7061C12.9538 22.866 13.2904 23.0047 13.6367 23.1211L13.9775 23.5957V25.1035H18.0186V23.5957L18.3594 23.1211C18.7048 23.005 19.0391 22.8662 19.3613 22.7051L19.9385 22.7988L21.0059 23.8662L23.8633 21.0088L22.7959 19.9414L22.7031 19.3623C22.8631 19.0451 23.0017 18.7088 23.1182 18.3623L23.5928 18.0215H25.1006V13.9805H23.5928L23.1182 13.6396C23.0021 13.2944 22.8632 12.9607 22.7021 12.6387L22.7959 12.0615L23.8633 10.9932L21.0059 8.13477L19.9385 9.20312L19.3594 9.2959C19.0422 9.13594 18.7058 8.99729 18.3594 8.88086L18.0186 8.40723V6.89844H13.9775V8.40723ZM15.999 11.4365C18.4835 11.4368 20.498 13.4511 20.498 15.9355C20.4979 18.4199 18.4834 20.4343 15.999 20.4346C13.5145 20.4346 11.5002 18.4201 11.5 15.9355C11.5 13.4509 13.5144 11.4365 15.999 11.4365ZM15.999 12.4365C14.0667 12.4365 12.5 14.0032 12.5 15.9355C12.5002 17.8678 14.0667 19.4346 15.999 19.4346C17.9311 19.4343 19.4979 17.8676 19.498 15.9355C19.498 14.0033 17.9312 12.4368 15.999 12.4365Z" fill="#B3B3B3"/>
</svg>
