<svg width="32" height="32" viewBox="0 0 32 32" fill="none" xmlns="http://www.w3.org/2000/svg">
<path d="M16.002 4.19727C22.4626 4.19753 27.6998 9.43486 27.7002 15.8955C27.7002 20.6664 24.8448 24.7685 20.751 26.5898L22.2686 27.1602L22.0938 27.6279L21.918 28.0967L19.1562 27.0605L18.8643 26.417L19.8994 23.6553L20.3682 23.8311L20.8359 24.0068L20.1816 25.7451C24.0132 24.1166 26.7002 20.3205 26.7002 15.8955C26.6998 9.98715 21.9103 5.19753 16.002 5.19727V4.19727ZM12.8467 4.83691L13.1396 5.48145L12.1035 8.24219L11.6357 8.06641L11.167 7.89062L11.8184 6.15234C7.98815 7.78133 5.30292 11.5771 5.30273 16.001C5.30273 21.9096 10.0924 26.6999 16.001 26.7002V27.7002C9.54009 27.6999 4.30273 22.4619 4.30273 16.001C4.30291 11.2297 7.15843 7.12754 11.2529 5.30664L9.73438 4.7373L10.0859 3.80176L12.8467 4.83691ZM16.001 9.05273L16.002 9.05176C19.81 9.05193 22.9002 12.1422 22.9004 15.9502C22.9002 19.7581 19.8131 22.8494 16.002 22.8496V22.3525H16.001V22.8467C12.193 22.8465 9.10272 19.7553 9.10254 15.9473C9.10273 12.1394 12.1898 9.04902 16.001 9.04883V9.05273ZM15.502 10.0703C12.4772 10.3239 10.1027 12.8594 10.1025 15.9473C10.1027 19.0349 12.4796 21.5693 15.502 21.8232V10.0703Z" fill="#B3B3B3"/>
</svg>
