<svg width="32" height="32" viewBox="0 0 32 32" fill="none" xmlns="http://www.w3.org/2000/svg">
<path d="M20.7988 18.6992C22.8426 18.6995 24.499 20.3566 24.499 22.4004C24.4989 24.444 22.8425 26.1003 20.7988 26.1006C18.9246 26.1006 17.3762 24.7076 17.1318 22.9004H14.8643C14.62 24.7074 13.0732 26.1003 11.1992 26.1006C9.15536 26.1006 7.4982 24.4442 7.49805 22.4004C7.49805 20.3564 9.15527 18.6992 11.1992 18.6992C13.0733 18.6995 14.6202 20.0931 14.8643 21.9004H17.1318C17.376 20.0929 18.9245 18.6992 20.7988 18.6992ZM11.1992 19.6992C9.70755 19.6992 8.49805 20.9087 8.49805 22.4004C8.4982 23.8919 9.70765 25.1006 11.1992 25.1006C12.6905 25.1003 13.8993 23.8917 13.8994 22.4004C13.8994 20.9089 12.6906 19.6995 11.1992 19.6992ZM20.7988 19.6992C19.3072 19.6992 18.0977 20.9087 18.0977 22.4004C18.0978 23.8919 19.3073 25.1006 20.7988 25.1006C22.2902 25.1003 23.4989 23.8918 23.499 22.4004C23.499 20.9089 22.2903 19.6995 20.7988 19.6992ZM13.2979 8.00098V15.499H27.2002L27.7002 15.999V22.4004H26.7002V16.499H12.7979L12.2979 15.999V8.50098H8.30762L5.2998 14.5166V22.4004H4.2998V14.3994L4.35254 14.1758L7.55078 7.77734L7.99805 7.50098H12.7979L13.2979 8.00098ZM26.0977 8.00098V14.3994H25.0977V8.50098H14.3994V7.50098H25.5977L26.0977 8.00098Z" fill="#B3B3B3"/>
</svg>
