<svg width="32" height="32" viewBox="0 0 32 32" fill="none" xmlns="http://www.w3.org/2000/svg">
<path d="M5.33984 25.0996H15.5V19.3066H16.5V25.0996H26.6602V19.3066H27.6602V25.5996L27.1602 26.0996H4.83984L4.33984 25.5996V19.3066H5.33984V25.0996ZM12.6533 19.7002H8.18652V18.7002H12.6533V19.7002ZM23.8135 19.7002H19.3467V18.7002H23.8135V19.7002ZM10.0996 15.5H21.8994V9.59961H22.8994V15.5H27.1602L27.6602 16V18.2002H26.6602V16.5H16.5V18.2002H15.5V16.5H5.33984V18.2002H4.33984V16L4.83984 15.5H9.09961V9.59961H10.0996V15.5ZM19.2002 10.0996H12.7998V9.09961H19.2002V10.0996ZM22.8994 6.40039V8.48047H21.8994V6.90039H10.0996V8.48047H9.09961V6.40039L9.59961 5.90039H22.3994L22.8994 6.40039Z" fill="#B3B3B3"/>
</svg>
