<svg width="32" height="32" viewBox="0 0 32 32" fill="none" xmlns="http://www.w3.org/2000/svg">
<path d="M25.8779 12.3838L26.1006 12.7998V15.998H25.1006V13.0664L16.001 6.99902L6.90137 13.0664V25.0977H9.60254V26.0977H6.40137L5.90137 25.5977V12.7998L6.12402 12.3838L15.7236 5.98242H16.2783L25.8779 12.3838ZM22.9004 12.8008V18.6992H25.6006L26.1006 19.1992V25.5977L25.6006 26.0977H19.2021L19.2002 26.0957L19.1992 26.0977H12.8008L12.3008 25.5977V19.1992L12.8008 18.6992H15.502V12.8008L16.002 12.3008H22.4004L22.9004 12.8008ZM13.3008 25.0977H18.6992V19.6992H13.3008V25.0977ZM19.7021 25.0977H25.1006V19.6992H19.7021V25.0977ZM17.6006 21.9727H14.4023V20.9727H17.6006V21.9727ZM24.0029 21.9727H20.8018V20.9727H24.0029V21.9727ZM16.502 18.6992H21.9004V13.3008H16.502V18.6992ZM20.8018 15.5742H17.6006V14.5742H20.8018V15.5742Z" fill="#B3B3B3"/>
</svg>
