<svg width="32" height="32" viewBox="0 0 32 32" fill="none" xmlns="http://www.w3.org/2000/svg">
<path d="M8.50098 23.502H17.6006V24.502H8.00098L7.50098 24.002V12.8008H8.50098V23.502ZM26.0352 13.0488L22.9756 18.4014L26.0352 23.7539L25.6006 24.502H19.1992L18.7646 23.7539L21.8232 18.4014L18.7646 13.0488L19.1992 12.3008H25.6006L26.0352 13.0488ZM20.0615 23.502H24.7393L22.3994 19.4092L20.0615 23.502ZM22.3994 17.3926L24.7393 13.3008H20.0615L22.3994 17.3926ZM17.6006 13.3008H12.8008V12.3008H17.6006V13.3008ZM24.499 8.00098V11.2021H23.499V8.50098H8.50098V11.2021H7.50098V8.00098L8.00098 7.50098H23.999L24.499 8.00098Z" fill="#B3B3B3"/>
</svg>
