<svg width="24" height="24" viewBox="0 0 24 24" fill="none" xmlns="http://www.w3.org/2000/svg">
<path d="M12 4.2998C14.9199 4.2998 17.2997 6.6797 17.2998 9.59961V12.9902L18.3496 14.04L18.5 14.3896V16.79L18 17.29H14.8496C14.6095 18.6499 13.4299 19.6895 12 19.6895C10.5701 19.6895 9.39051 18.6499 9.15039 17.29H6L5.5 16.79V14.3896L5.65039 14.04L6.7002 12.9902V9.59961C6.7003 6.6797 9.08007 4.2998 12 4.2998ZM10.1699 17.2998C10.3895 18.0983 11.1272 18.697 11.9951 18.6992C12.8728 18.6969 13.6007 18.1082 13.8203 17.2998H10.1699ZM12 5.30957C9.63015 5.30957 7.70043 7.23957 7.7002 9.60938V13.21L7.5498 13.5596L6.5 14.6094V16.2998H17.5V14.6094L16.4502 13.5596L16.2998 13.21V9.60938C16.2996 7.23957 14.3699 5.30957 12 5.30957Z" fill="#4D4D4D"/>
</svg>
