<svg width="24" height="24" viewBox="0 0 24 24" fill="none" xmlns="http://www.w3.org/2000/svg">
<path fill-rule="evenodd" clip-rule="evenodd" d="M6.5 17.5H17.5V9.60059H18.5V18L18 18.5H6L5.5 18V9.60059H6.5V17.5ZM12.4902 9.60059V11.5H14.4004V12.5H12.4902V14.4004H11.4902V12.5H9.59961V11.5H11.4902V9.60059H12.4902ZM8.90039 5.5H15.0996V3.59961H16.0996V5.5H18L18.5 6V8.40039H17.5V6.5H16.0996V8.40039H15.0996V6.5H8.90039V8.40039H7.90039V6.5H6.5V8.40039H5.5V6L6 5.5H7.90039V3.59961H8.90039V5.5Z" fill="#4D4D4D"/>
</svg>
