<svg width="24" height="24" viewBox="0 0 24 24" fill="none" xmlns="http://www.w3.org/2000/svg">
<path d="M14.2998 12V14.4004L13.7998 14.9004H11.4004V13.9004H13.2998V12.5H9.20996L7.09961 14.6104V18.7002H13.7197L20.5 16.4404V14.9004H16.2002V13.9004H21.0098L21.5098 14.4004V16.7998L21.1699 17.2695L13.8096 19.7002H3.00977L2.50977 19.2002V14.4004L3.00977 13.9004H6.40039L8.65039 11.6504L9 11.5H13.7998L14.2998 12ZM3.5 18.7002H6.09961V14.9004H3.5V18.7002ZM18.5996 8.5C19.8695 8.5 20.9003 9.5299 20.9004 10.7998C20.9004 12.0698 19.8696 13.0996 18.5996 13.0996C17.3298 13.0994 16.2998 12.0697 16.2998 10.7998C16.2999 9.53002 17.3298 8.5002 18.5996 8.5ZM18.5996 9.5C17.8798 9.5002 17.2999 10.08 17.2998 10.7998C17.2998 11.5197 17.8798 12.0994 18.5996 12.0996C19.3196 12.0996 19.9004 11.5198 19.9004 10.7998C19.9003 10.0799 19.3195 9.5 18.5996 9.5ZM11.4004 6.10059C12.6702 6.10081 13.7002 7.13053 13.7002 8.40039C13.7 9.67012 12.6701 10.7 11.4004 10.7002C10.1305 10.7002 9.09977 9.67026 9.09961 8.40039C9.09961 7.13039 10.1304 6.10059 11.4004 6.10059ZM11.4004 7.10059C10.6804 7.10059 10.0996 7.68039 10.0996 8.40039C10.0998 9.12026 10.6805 9.7002 11.4004 9.7002C12.1201 9.69997 12.7 9.12012 12.7002 8.40039C12.7002 7.68053 12.1202 7.10081 11.4004 7.10059ZM16.2002 3.7002C17.4701 3.70029 18.4999 4.73015 18.5 6C18.5 7.26994 17.4701 8.29971 16.2002 8.2998C14.9302 8.2998 13.9004 7.27 13.9004 6C13.9005 4.73009 14.9303 3.7002 16.2002 3.7002ZM16.2002 4.7002C15.4803 4.7002 14.9005 5.28009 14.9004 6C14.9004 6.72 15.4802 7.2998 16.2002 7.2998C16.9201 7.29971 17.5 6.71994 17.5 6C17.4999 5.28015 16.9201 4.70029 16.2002 4.7002Z" fill="#4D4D4D"/>
</svg>
