<svg width="24" height="24" viewBox="0 0 24 24" fill="none" xmlns="http://www.w3.org/2000/svg">
<path d="M12.5996 4.2998C16.5195 4.2998 19.7 7.4796 19.7002 11.3994V12.5996C19.7002 16.5196 16.5096 19.7002 12.5996 19.7002H6L5.5 19.2002V11.3994C5.50021 7.47973 8.67992 4.30002 12.5996 4.2998ZM12.5996 5.2998C9.23992 5.30002 6.50022 8.03973 6.5 11.3994V18.7002H12.5996C15.9596 18.7002 18.7002 15.9596 18.7002 12.5996V11.3994C18.7 8.0396 15.9595 5.2998 12.5996 5.2998ZM13.2002 16.0498H9.59961V15.0498H13.2002V16.0498ZM15.5996 13.6504H9.59961V12.6504H15.5996V13.6504ZM15.5996 11.25H9.59961V10.25H15.5996V11.25ZM15.5996 8.85059H9.59961V7.85059H15.5996V8.85059Z" fill="#4D4D4D"/>
</svg>
