<svg width="24" height="24" viewBox="0 0 24 24" fill="none" xmlns="http://www.w3.org/2000/svg">
<path d="M6.4502 17.5498H13.2002V18.4404H6L5.5498 18V9.60059H6.4502V17.5498ZM19.5898 9.81055L17.3203 13.79L19.5898 17.7705L19.2002 18.4404H14.4004L14.0098 17.7705L16.2803 13.79L14.0098 9.81055L14.4004 9.14062H19.2002L19.5898 9.81055ZM15.1699 17.5498H18.4297L16.7998 14.7002L15.1699 17.5498ZM16.7998 12.8906L18.4297 10.04H15.1699L16.7998 12.8906ZM13.2002 9.15039V10.04H9.59961V9.15039H13.2002ZM18.4502 6V8.39941H17.5498V6.43945H6.4502V8.39941H5.5498V6L6 5.5498H18L18.4502 6Z" fill="#4D4D4D"/>
</svg>
