<svg width="24" height="24" viewBox="0 0 24 24" fill="none" xmlns="http://www.w3.org/2000/svg">
<path d="M6.4502 17.5498H12V18.4404H6L5.5498 18V9.60059H6.4502V17.5498ZM15.5996 10.3398C17.8295 10.3398 19.6503 12.1597 19.6504 14.3896C19.6504 16.6196 17.8296 18.4395 15.5996 18.4395C13.3698 18.4392 11.5498 16.6195 11.5498 14.3896C11.5499 12.1599 13.3698 10.34 15.5996 10.3398ZM15.5996 11.2402C13.8598 11.2404 12.4503 12.6499 12.4502 14.3896C12.4502 16.1295 13.8598 17.5398 15.5996 17.54C17.3396 17.54 18.75 16.1296 18.75 14.3896C18.7499 12.6497 17.3395 11.2402 15.5996 11.2402ZM15.5996 12.1201C16.8596 12.1201 17.8799 13.1404 17.8799 14.4004C17.8797 15.6603 16.8595 16.6797 15.5996 16.6797C14.3399 16.6795 13.3205 15.6601 13.3203 14.4004C13.3203 13.1405 14.3398 12.1203 15.5996 12.1201ZM15.5996 13.0098C14.8399 13.01 14.22 13.63 14.2197 14.3896C14.2197 15.1495 14.8398 15.7801 15.5996 15.7803C16.3596 15.7803 16.9902 15.1596 16.9902 14.3896C16.99 13.6199 16.3695 13.0098 15.5996 13.0098ZM13.2002 10.04H9.59961V9.15039H13.2002V10.04ZM18.4502 6V8.39941H17.5498V6.43945H6.4502V8.39941H5.5498V6L6 5.5498H18L18.4502 6Z" fill="#4D4D4D"/>
</svg>
