<svg width="24" height="24" viewBox="0 0 24 24" fill="none" xmlns="http://www.w3.org/2000/svg">
<path d="M19.7002 6V19.2002L19.2002 19.7002H6V18.7002H18.7002V6H19.7002ZM17.2998 4.7998V16.7998L16.7998 17.2998H4.7998L4.2998 16.7998V4.7998L4.7998 4.2998H16.7998L17.2998 4.7998ZM5.2998 16.2998H16.2998V5.2998H5.2998V16.2998ZM10.7998 6.7002C13.0597 6.7002 14.9002 8.53998 14.9004 10.7998C14.9004 13.0598 13.0598 14.9004 10.7998 14.9004C8.53986 14.9003 6.7002 13.0598 6.7002 10.7998C6.70041 8.54002 8.53999 6.70026 10.7998 6.7002ZM9 13.3105C9.50993 13.6804 10.1299 13.9004 10.7998 13.9004C12.3398 13.9004 13.6096 12.7698 13.8496 11.2998H11.0098L9 13.3105ZM10.2998 7.75C8.82997 7.99002 7.70039 9.26001 7.7002 10.7998C7.7002 11.4698 7.92004 12.0906 8.29004 12.6006L10.2998 10.5898V7.75ZM11.2998 10.2998H13.8496C13.6295 8.99001 12.6097 7.95998 11.2998 7.75V10.2998Z" fill="#4D4D4D"/>
</svg>
