<svg width="24" height="24" viewBox="0 0 24 24" fill="none" xmlns="http://www.w3.org/2000/svg">
<path d="M12 4.2998C16.25 4.29981 19.7002 7.75 19.7002 12C19.7001 16.2499 16.2499 19.7002 12 19.7002C7.75006 19.7002 4.29991 16.2499 4.2998 12C4.2998 7.75 7.75 4.2998 12 4.2998ZM12 5.2998C8.31 5.2998 5.2998 8.31 5.2998 12C5.29991 15.6899 8.31006 18.7002 12 18.7002C15.6899 18.7002 18.7001 15.6899 18.7002 12C18.7002 8.31 15.69 5.29981 12 5.2998ZM12.5 10.7998V16.7998H11.5V10.7998H12.5ZM12 7.60059C12.44 7.60059 12.7998 7.96039 12.7998 8.40039C12.7996 8.84026 12.4399 9.2002 12 9.2002C11.5601 9.20019 11.2004 8.84025 11.2002 8.40039C11.2002 7.96039 11.56 7.60059 12 7.60059Z" fill="#4D4D4D"/>
</svg>
