<svg width="24" height="24" viewBox="0 0 24 24" fill="none" xmlns="http://www.w3.org/2000/svg">
<path d="M18.5 6V14.4004L18.3496 14.75L14.75 18.3496L14.4004 18.5H6L5.5 18V6L6 5.5H18L18.5 6ZM6.5 17.5098H12.7002V13.21L13.2002 12.71H16.7998V13.71H13.7002V17.5098H14.1904L17.5 14.2002V6.50977H6.5V17.5098ZM11.25 15.1006V16.1006H8.40039V15.1006H11.25ZM11.25 13.7002H8.40039V12.7002H11.25V13.7002ZM15.5996 11.2998H8.40039V10.2998H15.5996V11.2998ZM15.5996 8.90039H8.40039V7.90039H15.5996V8.90039Z" fill="#4D4D4D"/>
</svg>
