<svg width="24" height="24" viewBox="0 0 24 24" fill="none" xmlns="http://www.w3.org/2000/svg">
<path fill-rule="evenodd" clip-rule="evenodd" d="M12 3.10938C15.5799 3.10938 18.4901 6.01972 18.4902 9.59961C18.4902 10.9896 18.05 12.33 17.21 13.46L12.4102 20.6797H11.5801L6.78027 13.46H6.79004C5.95004 12.33 5.50977 10.9996 5.50977 9.59961C5.5099 6.01972 8.42008 3.10938 12 3.10938ZM11.9902 4.09961C8.96024 4.09961 6.50001 6.55985 6.5 9.58984C6.5 10.7798 6.8797 11.9199 7.59961 12.8799L7.58008 12.9199L7.61035 12.8994L11.9902 19.4902L16.3701 12.8994L16.4004 12.9199L16.3799 12.8799C17.0999 11.9199 17.4805 10.7798 17.4805 9.58984C17.4805 6.55993 15.0201 4.09973 11.9902 4.09961ZM12 6.69043C13.6 6.69045 14.9003 7.9899 14.9004 9.58984C14.9004 11.1898 13.6 12.4902 12 12.4902C10.4 12.4902 9.09961 11.1898 9.09961 9.58984C9.09966 7.98989 10.4 6.69043 12 6.69043ZM12 7.69043C10.95 7.69043 10.0997 8.53989 10.0996 9.58984C10.0996 10.6398 10.95 11.4902 12 11.4902C13.05 11.4902 13.9004 10.6398 13.9004 9.58984C13.9003 8.5399 13.05 7.69045 12 7.69043Z" fill="#4D4D4D"/>
</svg>
