<svg width="24" height="24" viewBox="0 0 24 24" fill="none" xmlns="http://www.w3.org/2000/svg">
<path d="M18.5 10.8105V19.21L18 19.71H6L5.5 19.21V10.8105L6 10.3105H18L18.5 10.8105ZM6.5 18.71H17.5V11.3105H6.5V18.71ZM9.59961 14.21C10.0395 14.21 10.4003 14.5699 10.4004 15.0098C10.4004 15.4498 10.0396 15.8096 9.59961 15.8096C9.15978 15.8094 8.7998 15.4496 8.7998 15.0098C8.79991 14.57 9.15985 14.2102 9.59961 14.21ZM12 14.21C12.4399 14.21 12.7997 14.5699 12.7998 15.0098C12.7998 15.4498 12.44 15.8096 12 15.8096C11.56 15.8096 11.2002 15.4498 11.2002 15.0098C11.2003 14.5699 11.5601 14.21 12 14.21ZM14.4004 14.21C14.8401 14.2102 15.2001 14.57 15.2002 15.0098C15.2002 15.4496 14.8402 15.8093 14.4004 15.8096C13.9604 15.8096 13.5996 15.4498 13.5996 15.0098C13.5997 14.5699 13.9605 14.21 14.4004 14.21ZM12 4.2998C13.6 4.29982 14.9004 5.6002 14.9004 7.2002H13.9004C13.9004 6.1502 13.05 5.29982 12 5.2998C10.95 5.2998 10.0996 6.1502 10.0996 7.2002V9.59961H9.09961V7.2002C9.09961 5.6002 10.4 4.2998 12 4.2998Z" fill="#4D4D4D"/>
</svg>
