<svg width="24" height="24" viewBox="0 0 24 24" fill="none" xmlns="http://www.w3.org/2000/svg">
<path d="M7.2002 11.2002C7.64005 11.2003 7.99989 11.5601 8 12C8 12.4399 7.64012 12.7997 7.2002 12.7998C6.7602 12.7998 6.40039 12.44 6.40039 12C6.4005 11.5601 6.76026 11.2002 7.2002 11.2002ZM12 11.2002C12.4399 11.2002 12.7997 11.5601 12.7998 12C12.7998 12.44 12.44 12.7998 12 12.7998C11.56 12.7998 11.2002 12.44 11.2002 12C11.2003 11.5601 11.5601 11.2002 12 11.2002ZM16.7998 11.2002C17.2397 11.2002 17.5995 11.5601 17.5996 12C17.5996 12.44 17.2398 12.7998 16.7998 12.7998C16.3599 12.7997 16 12.4399 16 12C16.0001 11.5602 16.36 11.2003 16.7998 11.2002Z" fill="#4D4D4D"/>
</svg>
