<svg width="24" height="24" viewBox="0 0 24 24" fill="none" xmlns="http://www.w3.org/2000/svg">
<path d="M16.0996 6V15.5996L15.5996 16.0996H13.2002L12.9199 16.0195L9.4502 13.7002H7.7002V17.5H9.09961V15.5996H10.0996V18L9.59961 18.5H7.2002L6.7002 18V13.7002H4.7998L4.2998 13.2002V8.40039L4.7998 7.90039H9.4502L12.9199 5.58008L13.2002 5.5H15.5996L16.0996 6ZM9.87988 8.82031L9.59961 8.90039H5.2998V12.7002H9.59961L9.87988 12.7803L13.3496 15.0996H15.0996V6.5H13.3496L9.87988 8.82031ZM19.3896 6.85059C21.5696 9.03059 21.5696 12.5798 19.3896 14.7598L18.6797 14.0498C20.4697 12.2598 20.4696 9.35055 18.6797 7.56055L19.3896 6.85059ZM17.7305 8.04004C19.2501 9.55994 19.25 12.0299 17.7305 13.5498L17.0205 12.8398C18.1501 11.7099 18.1502 9.8799 17.0205 8.75L17.7305 8.04004Z" fill="#4D4D4D"/>
</svg>
