<svg width="24" height="24" viewBox="0 0 24 24" fill="none" xmlns="http://www.w3.org/2000/svg">
<path fill-rule="evenodd" clip-rule="evenodd" d="M12 16C12.4399 16 12.7997 16.3599 12.7998 16.7998C12.7998 17.2398 12.44 17.5996 12 17.5996C11.56 17.5996 11.2002 17.2398 11.2002 16.7998C11.2003 16.3599 11.5601 16 12 16ZM12 11.2002C12.4399 11.2002 12.7997 11.5601 12.7998 12C12.7998 12.44 12.44 12.7998 12 12.7998C11.56 12.7998 11.2002 12.44 11.2002 12C11.2003 11.5601 11.5601 11.2002 12 11.2002ZM12 6.39941C12.44 6.39941 12.7998 6.7602 12.7998 7.2002C12.7996 7.64006 12.4399 8 12 8C11.5601 7.99999 11.2004 7.64006 11.2002 7.2002C11.2002 6.7602 11.56 6.39942 12 6.39941Z" fill="#4D4D4D"/>
</svg>
