<svg width="24" height="24" viewBox="0 0 24 24" fill="none" xmlns="http://www.w3.org/2000/svg">
<path d="M16.8096 5.5L17.1602 5.65039L19.5596 8.0498L19.71 8.40039V12L19.21 12.5H17.2598L19.4902 13.9805L19.71 14.4004V18L19.21 18.5H4.80957L4.30957 18V14.4004L4.53027 13.9805L6.75977 12.5H4.80957L4.30957 12V8.40039L4.45996 8.0498L6.86035 5.65039L7.20996 5.5H16.8096ZM8.90039 9.5V12L8.67969 12.4199L5.2998 14.6699V17.5H18.7002V14.6699L15.3203 12.4199L15.0996 12V9.5H8.90039ZM12 10.6006C13.6 10.6006 14.9003 11.9001 14.9004 13.5C14.9004 15.1 13.6 16.4004 12 16.4004C10.4 16.4004 9.09961 15.1 9.09961 13.5C9.09966 11.9 10.4 10.6006 12 10.6006ZM12 11.6006C10.95 11.6006 10.0997 12.45 10.0996 13.5C10.0996 14.55 10.95 15.4004 12 15.4004C13.05 15.4004 13.9004 14.55 13.9004 13.5C13.9003 12.4501 13.05 11.6006 12 11.6006ZM7.41016 6.5L5.2998 8.61035V11.5H7.90039V9L8.40039 8.5H15.5996L16.0996 9V11.5H18.71V8.61035L16.5996 6.5H7.41016Z" fill="#4D4D4D"/>
</svg>
