<svg width="24" height="24" viewBox="0 0 24 24" fill="none" xmlns="http://www.w3.org/2000/svg">
<path d="M18.5 6V18L18 18.5H6L5.5 18V6L6 5.5H18L18.5 6ZM6.5 17.5H17.5V6.5H6.5V17.5ZM12.21 13.9004H16.7998V14.9004H12L11.6504 14.7598L9.59961 12.71L7.55957 14.7598L6.84961 14.0498L9.25 11.6504H9.95996L12.21 13.9004ZM14.4004 8.68066C15.4501 8.68088 16.3094 9.54013 16.3096 10.5898C16.3096 11.6397 15.4502 12.4998 14.4004 12.5C13.3504 12.5 12.4902 11.6398 12.4902 10.5898C12.4904 9.54 13.3505 8.68066 14.4004 8.68066ZM14.4004 9.69043C13.9004 9.69043 13.4902 10.1006 13.4902 10.6006C13.4905 11.1004 13.9005 11.5098 14.4004 11.5098C14.9001 11.5095 15.3093 11.1003 15.3096 10.6006C15.3096 10.1007 14.9002 9.69065 14.4004 9.69043Z" fill="#4D4D4D"/>
</svg>
