<svg width="24" height="24" viewBox="0 0 24 24" fill="none" xmlns="http://www.w3.org/2000/svg">
<path d="M15.5996 6.5H6.5V17.5H17.5V13.2002H18.5V18L18 18.5H6L5.5 18V6L6 5.5H15.5996V6.5ZM20.8604 7.99023V8.7002L13.96 15.5703L11.79 16.79L11.1904 16.71L10.5898 16.1104H8.40039V15.1104H10.5098L11.3096 13.71H8.40039V12.71H12V12.75L18.46 6.29004H19.1602L20.8604 7.99023ZM12.4199 13.7305L11.4199 15.5098L11.6299 15.7197L13.4102 14.7197L13.4004 14.71L19.79 8.33008L18.7998 7.33984L12.4199 13.7305ZM12 10.2998V11.2998H8.40039V10.2998H12ZM13.2002 8.90039H8.40039V7.90039H13.2002V8.90039Z" fill="#4D4D4D"/>
</svg>
