<svg width="24" height="24" viewBox="0 0 24 24" fill="none" xmlns="http://www.w3.org/2000/svg">
<path d="M4.12988 18.7002H11.5V14.4805H12.5V18.7002H19.8701V14.4805H20.8701V19.2002L20.3701 19.7002H3.62988L3.12988 19.2002V14.4805H4.12988V18.7002ZM9.5 14.9004H6.15039V13.9004H9.5V14.9004ZM17.8604 14.9004H14.5098V13.9004H17.8604V14.9004ZM7.7002 11.5H16.2998V7.2002H17.2998V11.5H20.3701L20.8701 12V13.6504H19.8701V12.5H12.5V13.6504H11.5V12.5H4.12988V13.6504H3.12988V12L3.62988 11.5H6.7002V7.2002H7.7002V11.5ZM14.4004 6.7002V7.7002H9.59961V6.7002H14.4004ZM17.2998 4.7998V6.35938H16.2998V5.2998H7.7002V6.35938H6.7002V4.7998L7.2002 4.2998H16.7998L17.2998 4.7998Z" fill="#4D4D4D"/>
</svg>
