<svg width="24" height="24" viewBox="0 0 24 24" fill="none" xmlns="http://www.w3.org/2000/svg">
<path d="M12 12.7002C15.58 12.7002 18.5 15.6202 18.5 19.2002H17.5C17.5 16.1702 15.03 13.7002 12 13.7002C8.97 13.7002 6.5 16.1702 6.5 19.2002H5.5C5.5 15.6202 8.42 12.7002 12 12.7002ZM12 4.2998C13.93 4.2998 15.5 5.8698 15.5 7.7998C15.5 9.7298 13.93 11.2998 12 11.2998C10.07 11.2998 8.5 9.7298 8.5 7.7998C8.5 5.8698 10.07 4.2998 12 4.2998ZM12 5.2998C10.62 5.2998 9.5 6.4198 9.5 7.7998C9.5 9.1798 10.62 10.2998 12 10.2998C13.38 10.2998 14.5 9.1798 14.5 7.7998C14.5 6.4198 13.38 5.2998 12 5.2998Z" fill="#4D4D4D"/>
</svg>
