<svg width="24" height="24" viewBox="0 0 24 24" fill="none" xmlns="http://www.w3.org/2000/svg">
<path fill-rule="evenodd" clip-rule="evenodd" d="M12 3.03027C16.91 3.03027 20.9003 7.01973 20.9004 11.9297H20.8799C20.8799 15.3996 18.91 18.4694 15.8701 19.9395L16.7305 20.2598L16.3799 21.2002L14.3096 20.4199L14.0195 19.7803L14.7998 17.71L15.7402 18.0596L15.3604 19.0693C18.1101 17.7792 19.9004 15.0395 19.9004 11.9297C19.9003 7.56973 16.36 4.03027 12 4.03027V3.03027ZM9.69043 3.50977L9.98047 4.15039L9.2002 6.21973L8.25977 5.87012L8.63965 4.86035C5.8899 6.15044 4.09961 8.89017 4.09961 12H4.12012C4.12013 16.3598 7.65975 19.9001 12.0195 19.9004V20.9004C7.10975 20.9001 3.12013 16.9098 3.12012 12C3.12012 8.53007 5.08999 5.46027 8.12988 3.99023L7.26953 3.66992L7.62012 2.72949L9.69043 3.50977Z" fill="#4D4D4D"/>
</svg>
