<svg width="24" height="24" viewBox="0 0 24 24" fill="none" xmlns="http://www.w3.org/2000/svg">
<path fill-rule="evenodd" clip-rule="evenodd" d="M11.9902 3.00977C16.9001 3.0099 20.8896 7.00024 20.8896 11.9102C20.8895 15.38 18.9198 18.45 15.8799 19.9199L16.7402 20.2402L16.3896 21.1797L14.3203 20.4102L14.0303 19.7695L14.8096 17.7002L15.75 18.0498L15.3701 19.0596C18.11 17.7696 19.9003 15.0298 19.9004 11.9199C19.9004 7.55992 16.36 4.01954 12 4.01953V3.01953L11.9902 3.00977ZM9.67969 3.50977L9.96973 4.15039L9.19043 6.21973L8.25 5.87012L8.62988 4.86035C5.89001 6.15039 4.09961 8.89008 4.09961 12C4.09962 16.36 7.64001 19.9004 12 19.9004V20.9004C7.09001 20.9004 3.09962 16.91 3.09961 12C3.09961 8.53 5.07012 5.46023 8.12012 3.99023L7.25977 3.66992L7.61035 2.72949L9.67969 3.50977ZM7.7002 15.0996H16.2998V11.3301H17.2998V15.5996L16.7998 16.0996H7.2002L6.7002 15.5996V11.3301H7.7002V15.0996ZM14.4004 11.2998H9.59961V10.2998H14.4004V11.2998ZM17.2998 8.40039V10.1299H16.2998V8.90039H7.7002V10.1299H6.7002V8.40039L7.2002 7.90039H16.7998L17.2998 8.40039Z" fill="#4D4D4D"/>
</svg>
