<svg width="24" height="24" viewBox="0 0 24 24" fill="none" xmlns="http://www.w3.org/2000/svg">
<path fill-rule="evenodd" clip-rule="evenodd" d="M15.7695 12.79L16.0098 13.3701L15.0996 15.5898L14.2695 15.25L14.9082 13.7168C13.5012 14.032 12.4502 15.2878 12.4502 16.79C12.4502 18.5299 13.8598 19.9402 15.5996 19.9404C17.3396 19.9404 18.75 18.53 18.75 16.79H19.6396C19.6396 19.02 17.8198 20.8398 15.5898 20.8398L15.5996 20.8496C13.3698 20.8494 11.5498 19.0297 11.5498 16.7998C11.5499 15.1132 12.5913 13.6612 14.0635 13.0537L13.21 12.7002L13.5498 11.8701L15.7695 12.79ZM19.4004 9.2002L19.6504 9.59961V13.2002H18.75V9.87988L10.0498 5.53027V9.59961L9.40039 10L5.25 7.92969V18.7598H10.7998V19.6504H4.7998L4.34961 19.2002V7.2002L5 6.7998L9.15039 8.87988V4.7998L9.7998 4.39941L19.4004 9.2002Z" fill="#4D4D4D"/>
</svg>
