<svg width="24" height="24" viewBox="0 0 24 24" fill="none" xmlns="http://www.w3.org/2000/svg">
<path d="M10.8096 4.2998C14.3896 4.2998 17.3096 7.2198 17.3096 10.7998C17.3096 12.4097 16.7201 13.8796 15.7402 15.0195L19.5596 18.8398L18.8496 19.5498L15.0303 15.7295C13.8914 16.7085 12.4129 17.2977 10.8047 17.2988C7.22711 17.2959 4.30957 14.378 4.30957 10.7998C4.30957 7.21995 7.22977 4.30004 10.8096 4.2998ZM10.8096 17.2998H10.7998C10.8014 17.2998 10.8031 17.2988 10.8047 17.2988C10.8063 17.2988 10.8079 17.2998 10.8096 17.2998ZM10.7998 5.2998C7.76989 5.2999 5.2998 7.76987 5.2998 10.7998C5.2998 13.8297 7.76989 16.2997 10.7998 16.2998C13.8298 16.2998 16.2998 13.8298 16.2998 10.7998C16.2998 7.7698 13.8298 5.2998 10.7998 5.2998Z" fill="#4D4D4D"/>
</svg>
