<svg width="24" height="24" viewBox="0 0 24 24" fill="none" xmlns="http://www.w3.org/2000/svg">
<path d="M13.9004 4.2998L14.4004 4.7998V5.95996C14.4603 5.98985 14.53 6.01011 14.5898 6.04004L15.4102 5.21973H16.1201L18.79 7.88965V8.59961L17.9697 9.41992C17.9997 9.47978 18.0199 9.54947 18.0498 9.60938H19.21L19.71 10.1094V13.8896L19.21 14.3896H18.0498C18.0198 14.4496 17.9997 14.5201 17.9697 14.5801L18.79 15.3994V16.1094L16.1201 18.7803H15.4102L14.5898 17.96C14.53 17.9899 14.4603 18.0101 14.4004 18.04V19.2002L13.9004 19.7002H10.1201L9.62012 19.2002V18.04C9.56012 18.01 9.48969 17.99 9.42969 17.96L8.61035 18.7803H7.90039L5.23047 16.1094V15.3994L6.0498 14.5801C6.0198 14.5201 5.99973 14.4496 5.96973 14.3896H4.80957L4.30957 13.8896V10.1094L4.80957 9.60938H5.96973C5.99963 9.54949 6.01989 9.4798 6.0498 9.41992L5.23047 8.59961V7.88965L7.90039 5.21973H8.61035L9.42969 6.04004C9.48969 6.01004 9.56012 5.98996 9.62012 5.95996V4.7998L10.1201 4.2998H13.9004ZM10.6299 5.28027V6.29004L10.29 6.75977C10.0301 6.84976 9.78979 6.94934 9.5498 7.06934L8.96973 6.97949L8.25977 6.26953L6.29004 8.24023L7 8.9502L7.08984 9.53027C6.96996 9.76012 6.87021 10.01 6.78027 10.2598L6.30957 10.5996H5.2998V13.3799H6.30957L6.78027 13.7197C6.87027 13.9797 6.96985 14.22 7.08984 14.46L7 15.04L6.29004 15.75L8.25977 17.7197L8.96973 17.0098L9.5498 16.9199C9.7798 17.0299 10.0303 17.1397 10.2803 17.2197L10.6201 17.6895V18.7002H13.4004V17.6895L13.7402 17.2197C13.9901 17.1398 14.2299 17.0398 14.4697 16.9199L15.0498 17.0098L15.7598 17.7197L17.7305 15.75L17.0195 15.04L16.9297 14.46C17.0397 14.23 17.1505 13.9795 17.2305 13.7295L17.7002 13.3896H18.71L18.7305 13.3701V10.5898H17.7197L17.25 10.25C17.16 10 17.0604 9.75953 16.9404 9.51953L17.0303 8.93945L17.7402 8.22949L15.7695 6.25977L15.0596 6.96973L14.4805 7.05957C14.2505 6.94957 14 6.84977 13.75 6.75977L13.4102 6.29004V5.28027H10.6299ZM12 8.4502C13.93 8.4502 15.5 10.0202 15.5 11.9502C15.5 13.8802 13.93 15.4502 12 15.4502C10.07 15.4502 8.5 13.8802 8.5 11.9502C8.5 10.0202 10.07 8.4502 12 8.4502ZM12 9.4502C10.62 9.4502 9.5 10.5702 9.5 11.9502C9.5 13.3302 10.62 14.4502 12 14.4502C13.38 14.4502 14.5 13.3302 14.5 11.9502C14.5 10.5702 13.38 9.4502 12 9.4502Z" fill="#4D4D4D"/>
</svg>
