<svg width="24" height="24" viewBox="0 0 24 24" fill="none" xmlns="http://www.w3.org/2000/svg">
<path d="M15.5996 13.9404C17.1696 13.9404 18.4502 15.22 18.4502 16.79C18.4501 18.36 17.1696 19.6396 15.5996 19.6396C14.1831 19.6395 13.0061 18.5971 12.7891 17.2402H11.2109C10.9939 18.5971 9.81686 19.6395 8.40039 19.6396C6.83042 19.6396 5.54986 18.36 5.5498 16.79C5.5498 15.22 6.83039 13.9404 8.40039 13.9404C9.82068 13.9406 11.0004 14.9883 11.2129 16.3506H12.7871C12.9996 14.9883 14.1793 13.9406 15.5996 13.9404ZM8.40039 14.8398C7.32039 14.8398 6.4502 15.72 6.4502 16.79C6.45025 17.86 7.33042 18.7402 8.40039 18.7402C9.47018 18.74 10.3496 17.8599 10.3496 16.79C10.3496 15.7202 9.47021 14.8401 8.40039 14.8398ZM15.5996 14.8398C14.5198 14.8401 13.6504 15.7202 13.6504 16.79C13.6504 17.8599 14.5298 18.74 15.5996 18.7402C16.6696 18.7402 17.5498 17.86 17.5498 16.79C17.5498 15.72 16.6696 14.8398 15.5996 14.8398ZM8.40039 15.1406C9.31018 15.1408 10.0498 15.8802 10.0498 16.79C10.0498 17.6999 9.31021 18.4402 8.40039 18.4404C7.49039 18.4404 6.75 17.7 6.75 16.79C6.75005 15.8801 7.49042 15.1406 8.40039 15.1406ZM15.5996 15.1406C16.5096 15.1406 17.2499 15.8801 17.25 16.79C17.25 17.7 16.5096 18.4404 15.5996 18.4404C14.6898 18.4402 13.9502 17.6999 13.9502 16.79C13.9502 15.8802 14.6898 15.1408 15.5996 15.1406ZM8.40039 16.04C7.98042 16.04 7.65044 16.3801 7.65039 16.79C7.65039 17.2 7.99039 17.54 8.40039 17.54C8.81022 17.5398 9.15039 17.1999 9.15039 16.79C9.15034 16.3802 8.81018 16.0403 8.40039 16.04ZM15.5996 16.04C15.1798 16.0403 14.8497 16.3802 14.8496 16.79C14.8496 17.1999 15.1898 17.5398 15.5996 17.54C16.0096 17.54 16.3496 17.2 16.3496 16.79C16.3496 16.3801 16.0096 16.04 15.5996 16.04ZM10.0498 6V11.5498H20.4004L20.8496 12V16.7998H19.9502V12.4395H9.59961L9.15039 12V6.43945H6.28027L4.0498 10.8994V16.7998H3.15039L3.2002 10.5996L5.59961 5.7998L6 5.5498H9.59961L10.0498 6ZM19.6504 6V10.7998H18.75V6.43945H10.7998V5.5498H19.2002L19.6504 6Z" fill="#4D4D4D"/>
</svg>
