<svg width="24" height="24" viewBox="0 0 24 24" fill="none" xmlns="http://www.w3.org/2000/svg">
<path d="M15.5996 13.9004C17.1996 13.9004 18.4999 15.1999 18.5 16.7998C18.5 18.3998 17.1996 19.7002 15.5996 19.7002C14.1698 19.7 12.99 18.6597 12.75 17.2998H11.25C11.01 18.6597 9.83021 19.7 8.40039 19.7002C6.80039 19.7002 5.5 18.3998 5.5 16.7998C5.50006 15.1999 6.80043 13.9004 8.40039 13.9004C9.83018 13.9006 11.01 14.94 11.25 16.2998H12.75C12.99 14.94 14.1698 13.9006 15.5996 13.9004ZM8.40039 14.9004C7.35043 14.9004 6.50006 15.7499 6.5 16.7998C6.5 17.8498 7.35039 18.7002 8.40039 18.7002C9.45021 18.7 10.2998 17.8497 10.2998 16.7998C10.2997 15.75 9.45017 14.9006 8.40039 14.9004ZM15.5996 14.9004C14.5498 14.9006 13.7003 15.75 13.7002 16.7998C13.7002 17.8497 14.5498 18.7 15.5996 18.7002C16.6496 18.7002 17.5 17.8498 17.5 16.7998C17.4999 15.7499 16.6496 14.9004 15.5996 14.9004ZM10.0996 6V11.5H20.4004L20.9004 12V16.7998H19.9004V12.5H9.59961L9.09961 12V6.5H6.30957L4.09961 10.9199V16.7998H3.09961V10.7998L3.15039 10.5801L5.5498 5.78027L6 5.5H9.59961L10.0996 6ZM19.2002 5.5L19.7002 6V10.7998H18.7002V6.5H10.7998V5.5H19.2002Z" fill="#4D4D4D"/>
</svg>
