<svg width="24" height="24" viewBox="0 0 24 24" fill="none" xmlns="http://www.w3.org/2000/svg">
<path d="M19.4805 9.18945L19.7002 9.59961V12H18.7002V9.87012L12 5.39941L5.2998 9.87012V18.7002H7.2002V19.7002H4.7998L4.2998 19.2002V9.59961L4.51953 9.18945L11.7305 4.37988H12.2803L19.4805 9.18945ZM17.2998 9.60059V13.9004H19.2002L19.7002 14.4004V19.2002L19.2002 19.7002H9.59961L9.09961 19.2002V14.4004L9.59961 13.9004H11.5V9.60059L12 9.10059H16.7998L17.2998 9.60059ZM10.0996 18.7002H13.9004V14.9004H10.0996V18.7002ZM14.9004 18.7002H18.7002V14.9004H14.9004V18.7002ZM13.2002 16.6104H10.7998V15.6104H13.2002V16.6104ZM18 16.6104H15.5996V15.6104H18V16.6104ZM12.5 13.9004H16.2998V10.1006H12.5V13.9004ZM15.5996 10.8105V11.8105H13.2002V10.8105H15.5996Z" fill="#4D4D4D"/>
</svg>
