<svg preserveAspectRatio="none" width="100%" height="100%" overflow="visible" style="display: block;" viewBox="0 0 13 13" fill="none" xmlns="http://www.w3.org/2000/svg">
<path id="Union" d="M11.2998 9.59961C12.2385 9.59972 12.9998 10.3612 13 11.2998C12.9999 12.2385 12.2385 12.9999 11.2998 13C10.535 12.9998 9.88827 12.4948 9.6748 11.7998H0.5V10.7998H9.67578C9.88951 10.1053 10.5353 9.59977 11.2998 9.59961ZM11.2998 10.5996C10.9135 10.5998 10.5998 10.9135 10.5996 11.2998C10.5997 11.6862 10.9134 11.9998 11.2998 12C11.6862 11.9999 11.9999 11.6862 12 11.2998C11.9998 10.9135 11.6862 10.5997 11.2998 10.5996ZM6.5 4.7998C7.26467 4.79989 7.91131 5.30531 8.125 6H12.5V7H8.12598C7.91242 7.69496 7.26483 8.20011 6.5 8.2002C5.73523 8.20011 5.08856 7.69488 4.875 7H0.5V6H4.875C5.08862 5.30526 5.73529 4.79989 6.5 4.7998ZM6.5 5.7998C6.11355 5.7999 5.7999 6.11355 5.7998 6.5C5.79991 6.88645 6.11355 7.2001 6.5 7.2002C6.88644 7.20009 7.20009 6.88644 7.2002 6.5C7.2001 6.11355 6.88645 5.79991 6.5 5.7998ZM1.7002 0C2.46504 8.73329e-05 3.11263 0.505254 3.32617 1.2002H12.5V2.2002H3.32617C3.11258 2.8951 2.46498 3.4003 1.7002 3.40039C0.761377 3.40039 0.000107195 2.63899 0 1.7002C0 0.761311 0.761311 0 1.7002 0ZM1.7002 1C1.3136 1 1 1.3136 1 1.7002C1.00011 2.0867 1.31366 2.40039 1.7002 2.40039C2.08664 2.40028 2.40028 2.08664 2.40039 1.7002C2.40039 1.31366 2.0867 1.00011 1.7002 1Z" fill="var(--fill-0, #292E36)"/>
</svg>
