<svg width="24" height="24" viewBox="0 0 24 24" fill="none" xmlns="http://www.w3.org/2000/svg">
<path d="M18.375 6.00098V14.4023L18.2646 14.667L14.665 18.2676L14.4004 18.377H6.00098L5.625 18.002V6.00098L6.00098 5.625H18L18.375 6.00098ZM6.37598 17.627H12.8252V13.2002L13.2002 12.8252H16.7998V13.5752H13.5752V17.627H14.2451L17.625 14.2461V6.37598H6.37598V17.627ZM11.252 15.9756H8.40137V15.2256H11.252V15.9756ZM11.252 13.5752H8.40137V12.8252H11.252V13.5752ZM15.6016 11.1768H8.40137V10.4268H15.6016V11.1768ZM15.6016 8.77637H8.40137V8.02637H15.6016V8.77637Z" fill="#B3B3B3"/>
</svg>
