<svg width="24" height="24" viewBox="0 0 24 24" fill="none" xmlns="http://www.w3.org/2000/svg">
<path d="M6.37573 17.6245H17.6248V9.6001H18.3748V17.9995L17.9998 18.3745H6.00073L5.62573 17.9995V9.6001H6.37573V17.6245ZM12.3738 11.6235H14.3992V12.3735H12.3738V14.3989H11.6238V12.3735H9.60034V11.6235H11.6238V9.6001H12.3738V11.6235ZM8.77417 5.62549H15.2234V3.6001H15.9734V5.62549H17.9998L18.3748 6.00049V8.39893H17.6248V6.37549H15.9734V8.39893H15.2234V6.37549H8.77417V8.39893H8.02417V6.37549H6.37573V8.39893H5.62573V6.00049L6.00073 5.62549H8.02417V3.6001H8.77417V5.62549Z" fill="#B3B3B3"/>
</svg>
