<svg width="24" height="24" viewBox="0 0 24 24" fill="none" xmlns="http://www.w3.org/2000/svg">
<path d="M11.9985 3.14624C16.8444 3.14624 20.7729 7.0748 20.7729 11.9207C20.7726 15.4989 18.6308 18.5745 15.5601 19.9402L16.6987 20.3669L16.5679 20.7185L16.436 21.0701L14.3647 20.2947L14.145 19.8123L14.9224 17.741L15.2739 17.8728L15.6245 18.0046L15.1362 19.3054C18.0086 18.0836 20.0226 15.2382 20.0229 11.9207C20.0229 7.48901 16.4302 3.89624 11.9985 3.89624V3.14624ZM9.6333 3.62573L9.85205 4.10815L9.07568 6.17944L8.72412 6.04761L8.37354 5.91577L8.86084 4.61499C5.98859 5.83686 3.97526 8.68314 3.9751 12.0007C3.9751 16.4324 7.56787 20.0251 11.9995 20.0251V20.7751C7.15365 20.7751 3.2251 16.8466 3.2251 12.0007C3.22526 8.4218 5.36737 5.34466 8.43896 3.97925L7.29834 3.55151L7.56201 2.84839L9.6333 3.62573ZM7.57471 15.2234H16.4253V11.3279H17.1753V15.5984L16.8003 15.9734H7.19971L6.82471 15.5984V11.3279H7.57471V15.2234ZM14.3989 11.1746H9.6001V10.4246H14.3989V11.1746ZM17.1753 8.39917V10.1287H16.4253V8.77417H7.57471V10.1287H6.82471V8.39917L7.19971 8.02417H16.8003L17.1753 8.39917Z" fill="#B3B3B3"/>
</svg>
