<svg preserveAspectRatio="none" width="100%" height="100%" overflow="visible" style="display: block;" viewBox="0 0 13 17.5771" fill="none" xmlns="http://www.w3.org/2000/svg">
<path id="Union" d="M6.49023 0C10.0694 0.000123319 12.9684 2.89318 12.9795 6.46973L13 6.49023C12.9999 7.943 12.5181 9.27822 11.7168 10.3564L6.91602 17.5771H6.08398L1.2832 10.3564H1.28223C0.481277 9.27834 5.2219e-05 7.94269 0 6.49023C0.000214161 2.90436 2.90434 0.000131791 6.49023 0ZM6.49023 1C3.45662 1.00013 1.00021 3.45664 1 6.49023C1.00005 7.64943 1.36238 8.72012 1.97461 9.60547L2.09961 9.78027L2.11621 9.80273L6.5 16.3975L10.8838 9.80273L10.9004 9.78027C11.5851 8.86727 11.9949 7.73808 11.999 6.50879L11.9805 6.49023C11.9803 3.45664 9.52386 1.00012 6.49023 1ZM6.49023 3.59082C8.09619 3.59103 9.38965 4.8852 9.38965 6.49121C9.38921 8.09684 8.09592 9.39041 6.49023 9.39062C4.89588 9.39043 3.59029 8.0982 3.58984 6.49121C3.58984 4.88519 4.88426 3.59102 6.49023 3.59082ZM6.49023 4.59082C5.43655 4.59102 4.58984 5.43747 4.58984 6.49121C4.59029 7.54321 5.44546 8.39043 6.49023 8.39062C7.54363 8.39041 8.38921 7.54456 8.38965 6.49121C8.38965 5.43748 7.54391 4.59103 6.49023 4.59082Z" fill="var(--fill-0, #292E36)"/>
</svg>
