<svg preserveAspectRatio="none" width="100%" height="100%" overflow="visible" style="display: block;" viewBox="0 0 10.5996 10.5996" fill="none" xmlns="http://www.w3.org/2000/svg">
<path id="Union" d="M5.2998 0C5.57584 0.000131944 5.7998 0.223939 5.7998 0.5C5.79971 0.775977 5.57577 0.999868 5.2998 1C2.9261 1.00011 1.00011 2.9261 1 5.2998C1.0001 7.67351 2.9261 9.5995 5.2998 9.59961C7.67349 9.59948 9.59951 7.6735 9.59961 5.2998C9.59971 5.02388 9.82371 4.80002 10.0996 4.7998C10.3756 4.79994 10.5995 5.02383 10.5996 5.2998C10.5995 8.22578 8.22577 10.5995 5.2998 10.5996C2.37381 10.5995 9.90326e-05 8.2258 0 5.2998C0.000105733 2.37382 2.37382 0.000105731 5.2998 0Z" fill="var(--fill-0, #292E36)"/>
</svg>
