<svg preserveAspectRatio="none" width="100%" height="100%" overflow="visible" style="display: block;" viewBox="0 0 13 14.8906" fill="none" xmlns="http://www.w3.org/2000/svg">
<path id="Union" d="M6.5 8.39062C10.0856 8.39062 13 11.2939 13 14.8906H12C12 11.8473 9.5344 9.39062 6.5 9.39062C3.46614 9.39062 1 11.8568 1 14.8906H0C0 11.3045 2.91386 8.39062 6.5 8.39062ZM6.50977 0C8.44585 0 10.0097 1.56394 10.0098 3.5C10.0098 5.43614 8.44591 7 6.50977 7C4.57374 6.99987 3.00977 5.43606 3.00977 3.5C3.00986 1.56402 4.5738 0.000131448 6.50977 0ZM6.50977 1C5.12608 1.00013 4.00986 2.11631 4.00977 3.5C4.00977 4.88378 5.12602 5.99987 6.50977 6C7.89362 6 9.00977 4.88386 9.00977 3.5C9.00967 2.11623 7.89356 1 6.50977 1Z" fill="var(--fill-0, #292E36)"/>
</svg>
