<svg preserveAspectRatio="none" width="100%" height="100%" overflow="visible" style="display: block;" viewBox="0 0 15.2637 15.2441" fill="none" xmlns="http://www.w3.org/2000/svg">
<path id="Union" d="M6.5 0C10.0861 0 12.9999 2.91394 13 6.5C13 8.10835 12.4124 9.58014 11.4424 10.7158L15.2637 14.5371L14.5566 15.2441L10.7373 11.4248C9.59881 12.4055 8.11828 13 6.5 13C2.91397 12.9999 0 10.0861 0 6.5C9.91782e-05 2.91402 2.91403 0.000132242 6.5 0ZM6.5 1C3.46632 1.00013 1.0001 3.46631 1 6.5C1 9.53378 3.46625 11.9999 6.5 12C9.53386 12 12 9.53386 12 6.5C11.9999 3.46623 9.5338 1 6.5 1Z" fill="var(--fill-0, #292E36)"/>
</svg>
