<svg width="24" height="24" viewBox="0 0 24 24" fill="none" xmlns="http://www.w3.org/2000/svg">
<path d="M14.2646 4.79932V6.0415C14.3814 6.08598 14.4967 6.13404 14.6104 6.18506L15.4893 5.30615H16.0195L18.6934 7.98096V8.51123L17.8135 9.39014C17.8645 9.50377 17.9124 9.6191 17.957 9.73584H19.2012L19.5762 10.1108V13.8921L19.2012 14.2671H17.957C17.9126 14.3836 17.8654 14.4993 17.8145 14.6128L18.6934 15.4917V16.022L16.0195 18.6958H15.4893L14.6094 17.8159C14.496 17.8668 14.3811 17.9149 14.2646 17.9595V19.2036L13.8896 19.5786H10.1084L9.7334 19.2036V17.9595C9.61652 17.9149 9.50051 17.868 9.38672 17.8169L8.50879 18.6958H7.97754L5.30371 16.022V15.4917L6.18359 14.6118C6.13276 14.4986 6.08549 14.3834 6.04102 14.2671H4.79688L4.42188 13.8921V10.1108L4.79688 9.73584H6.04004C6.08456 9.61901 6.13154 9.5029 6.18262 9.38916L5.30371 8.51123V7.98096L7.97754 5.30615H8.50879L9.3877 6.18604C9.50136 6.13501 9.61662 6.08711 9.7334 6.04248V4.79932L10.1084 4.42432H13.8896L14.2646 4.79932ZM10.4834 6.30615L10.2285 6.66162C9.96938 6.74871 9.71825 6.8523 9.47656 6.97314L9.04395 6.90283L8.24316 6.10205L6.09863 8.24561L6.90039 9.04639L6.96973 9.48096C6.84983 9.71874 6.74548 9.97125 6.6582 10.231L6.30371 10.4858H5.17188V13.5171H6.30371L6.6582 13.772C6.74524 14.0309 6.84995 14.2814 6.9707 14.5229L6.90039 14.9565L6.09863 15.7563L8.24316 17.8999L9.04395 17.1001L9.47852 17.0298C9.71641 17.1498 9.96866 17.254 10.2285 17.3413L10.4834 17.6968V18.8286H13.5146V17.6968L13.7695 17.3413C14.0285 17.2543 14.279 17.1505 14.5205 17.0298L14.9541 17.1001L15.7539 17.8999L17.8975 15.7563L17.0977 14.9565L17.0273 14.522C17.1474 14.2841 17.2515 14.0319 17.3389 13.772L17.6943 13.5171H18.8262V10.4858H17.6943L17.3389 10.231C17.2518 9.97187 17.1482 9.72065 17.0273 9.479L17.0977 9.04639L17.8975 8.24561L15.7539 6.10107L14.9541 6.90283L14.5195 6.97217C14.2817 6.8522 14.0294 6.74894 13.7695 6.66162L13.5146 6.30615V5.17432H10.4834V6.30615ZM11.999 8.57764C13.8624 8.57778 15.373 10.0883 15.373 11.9517C15.3729 13.8149 13.8623 15.3255 11.999 15.3257C10.1357 15.3256 8.62518 13.815 8.625 11.9517C8.62507 10.0883 10.1356 8.57771 11.999 8.57764ZM11.999 9.32764C10.5498 9.32771 9.37507 10.5025 9.375 11.9517C9.37518 13.4007 10.5499 14.5756 11.999 14.5757C13.4481 14.5755 14.6229 13.4007 14.623 11.9517C14.623 10.5025 13.4481 9.32778 11.999 9.32764Z" fill="#B3B3B3"/>
</svg>
