<svg preserveAspectRatio="none" width="100%" height="100%" overflow="visible" style="display: block;" viewBox="0 0 17.8008 18.4561" fill="none" xmlns="http://www.w3.org/2000/svg">
<path id="Union" d="M8.90039 0.288086C13.8165 0.288102 17.8008 4.27234 17.8008 9.18848C17.8004 12.7121 15.7538 15.7546 12.7842 17.1943L13.6465 17.5195L13.4707 17.9873L13.2939 18.4561L11.2236 17.6758L10.9326 17.0312L11.7129 14.9609L12.6484 15.3145L12.2627 16.3359C14.9447 15.0756 16.8004 12.3496 16.8008 9.18848C16.8008 4.82463 13.2642 1.2881 8.90039 1.28809V0.288086ZM6.57617 0.780273L6.86816 1.42383L6.08789 3.49414L5.62012 3.31738L5.15234 3.1416L5.53711 2.11816C2.85516 3.3786 1.00018 6.10632 1 9.26758C1.00025 13.6311 4.53685 17.1678 8.90039 17.168V18.168C3.98457 18.1678 0.000247306 14.1834 0 9.26758C0.000182985 5.74423 2.04557 2.69978 5.01465 1.25977L4.15332 0.935547L4.50684 0L6.57617 0.780273ZM8.90039 3.92773C11.8265 3.92773 14.2001 6.30149 14.2002 9.22754C14.2001 12.1536 11.8265 14.5273 8.90039 14.5273L8.62793 14.5205C5.82833 14.3786 3.60066 12.0623 3.60059 9.22754C3.60069 6.30155 5.9744 3.92783 8.90039 3.92773ZM8.40039 4.95703C6.26195 5.20497 4.60069 7.0229 4.60059 9.22754C4.60065 11.4322 6.26197 13.2491 8.40039 13.4971V4.95703Z" fill="var(--fill-0, #292E36)"/>
</svg>
