<svg width="24" height="24" viewBox="0 0 24 24" fill="none" xmlns="http://www.w3.org/2000/svg">
<path d="M19.4092 9.28833L19.5762 9.60083V11.9993H18.8262V9.80005L12.001 5.24927L5.17676 9.80005V18.8235H7.20215V19.5735H4.80176L4.42578 19.1985V9.60083L4.59375 9.28833L11.7939 4.48755H12.21L19.4092 9.28833ZM17.1748 9.60083V14.0247H19.2002L19.5752 14.3997V19.1985L19.2002 19.5735H14.4014L14.4004 19.5725L14.3994 19.5735H9.60059L9.22559 19.1985V14.3997L9.60059 14.0247H11.626V9.60083L12.001 9.22583H16.7998L17.1748 9.60083ZM9.97559 18.8235H14.0244V14.7747H9.97559V18.8235ZM14.7764 18.8235H18.8252V14.7747H14.7764V18.8235ZM13.2002 16.4797H10.8018V15.7297H13.2002V16.4797ZM18.001 16.4797H15.6006V15.7297H18.001V16.4797ZM12.376 14.0247H16.4248V9.97583H12.376V14.0247ZM15.6006 11.6809H13.2002V10.9309H15.6006V11.6809Z" fill="#B3B3B3"/>
</svg>
